<svg width="30" height="15" viewBox="0 0 30 15" fill="none" xmlns="http://www.w3.org/2000/svg">
<g clip-path="url(#clip0)">
<path d="M20.1811 2.95548C21.0244 2.95548 21.8107 2.93767 22.5963 2.96227C23.017 2.97584 23.2096 3.17265 23.28 3.58408C23.4938 4.8226 23.694 6.06198 23.8993 7.30559C23.9086 7.35734 23.9213 7.40739 23.9468 7.53294C24.0291 7.38957 24.0791 7.31238 24.1164 7.23009C24.6695 6.02974 25.2226 4.82939 25.7664 3.62904C25.9089 3.31347 26.1379 3.02844 26.4815 3.01656C27.3527 2.97245 28.2282 3.00214 29.1333 3.00214C29.0765 3.11666 29.0298 3.2227 28.9721 3.3245C27.5215 5.92879 26.0675 8.53309 24.6101 11.1391C23.9239 12.3598 22.9288 13.2429 21.429 13.3888C20.5281 13.4779 19.6077 13.4058 18.6516 13.4058C18.7687 12.8052 18.8671 12.2046 19.0037 11.6133C19.0834 11.2689 19.3413 11.1102 19.7239 11.1247C20.1056 11.1391 20.4645 11.1306 20.836 11.1247C21.7895 11.1136 22.3698 10.3849 22.1119 9.51458C21.4986 7.45062 20.8861 5.38641 20.2745 3.32195C20.2439 3.21591 20.2202 3.11412 20.1811 2.95548ZM1.87641 4.83702H0.731201C0.858447 4.18553 0.968727 3.57644 1.08749 2.93852C1.39712 2.93852 1.67367 2.92749 1.95022 2.93852C2.16229 2.94955 2.25391 2.88762 2.28784 2.673C2.37352 2.10209 2.49992 1.53542 2.60511 0.943304C3.16075 0.943304 3.69348 0.9204 4.22367 0.950939C4.75386 0.98063 4.96509 1.24276 4.90995 1.7441C4.86923 2.12584 4.78271 2.50419 4.71908 2.92325H6.30032C6.17393 3.58493 6.06449 4.20249 5.94658 4.83618H4.34753C4.20077 5.67685 4.03789 6.51752 3.92083 7.34546C3.86654 7.73653 4.13799 7.99272 4.60626 8.07501C4.83106 8.11657 5.06265 8.1293 5.3341 8.15984C5.20686 8.81727 5.09743 9.46453 4.96085 10.1067C4.94728 10.1703 4.79119 10.2535 4.7089 10.2467C4.15751 10.211 3.59084 10.211 3.0581 10.0872C1.74238 9.78349 1.1579 8.87411 1.38609 7.60165C1.52776 6.81018 1.6813 6.02041 1.82806 5.23064C1.84927 5.11188 1.8569 4.99311 1.87641 4.83618V4.83702ZM5.89314 10.1686L7.22158 2.99196C7.83576 2.99196 8.42618 2.96482 9.01066 3.00044C9.34744 3.0225 9.5154 3.26512 9.5154 3.61292C9.50692 3.89625 9.44838 4.17874 9.41954 4.40354C9.8174 4.05149 10.2169 3.63498 10.6827 3.30499C11.1791 2.95734 11.7901 2.8137 12.3895 2.90374L11.9645 5.2264C11.5488 5.26033 11.162 5.2493 10.7972 5.32989C9.87508 5.53348 9.29569 6.12136 9.07852 6.97221C8.84609 7.87989 8.69933 8.80624 8.52119 9.72581L8.43466 10.1686H5.89314ZM16.5546 2.8698C16.4282 3.55693 16.2204 5.11272 16.2204 5.11272C16.2204 5.11272 15.9905 5.13054 15.9345 5.14496C15.3322 5.30868 14.9505 5.676 14.8283 6.24351C14.696 6.86532 14.9183 7.38364 15.4603 7.7781C15.4968 7.80355 15.6826 7.94946 15.6826 7.94946C15.6826 7.94946 15.3992 9.44417 15.2779 10.133C13.3523 9.61807 12.1434 7.80609 12.4768 5.93049C12.8645 3.75035 14.9547 2.6959 16.5546 2.8698Z" fill="#C4C4C4"/>
<path d="M16.1178 10.2568C16.234 9.60364 16.3706 8.97675 16.4843 8.34561L16.5411 8.05124C16.6098 8.04361 16.6785 8.03258 16.7455 8.01731C17.3139 7.88752 17.7465 7.4464 17.8433 6.89755C17.9696 6.2715 17.7601 5.76252 17.2113 5.37824C17.161 5.35903 17.1086 5.34593 17.0552 5.33921L17.4335 3.09375C18.7866 3.27189 20.3135 4.79545 20.2524 6.65663C20.1718 9.14725 17.8517 10.5054 16.1178 10.2568Z" fill="#C4C4C4"/>
</g>
<defs>
<clipPath id="clip0">
<rect width="29.6907" height="13.5729" fill="white" transform="translate(0.209473 0.663574)"/>
</clipPath>
</defs>
</svg>
